<?xml version="1.0"?>
<svg width="120" height="14" xmlns="http://www.w3.org/2000/svg" xmlns:svg="http://www.w3.org/2000/svg">
 <g class="layer">
  <title>Layer 1</title>
  <g id="logo">
   <g id="XMLID_234_">
    <path d="m9.42,1.53l0,6.63c0,2.22 -0.96,3.13 -3.27,3.13c-2.3,0 -3.27,-0.91 -3.27,-3.13l0,-6.92l-2.21,0c-0.14,0 -0.29,0.14 -0.29,0.29l0,6.73c0,3.7 2.36,5 5.77,5c3.42,0 5.77,-1.3 5.77,-5l0,-7.02l-2.21,0c-0.14,0 -0.29,0.1 -0.29,0.29z" fill="#7fff00" id="XMLID_243_"/>
    <path d="m41.59,3.16c0.19,0 0.29,-0.04 0.33,-0.19l0.63,-1.59c0.05,-0.09 0,-0.14 -0.1,-0.14l-8.94,0c-0.82,0 -1.15,0.24 -1.15,0.82l0,10.29c0,0.48 0.24,0.72 0.86,0.72l8.32,0c0.19,0 0.29,-0.05 0.34,-0.19l0.62,-1.59c0.05,-0.1 0,-0.15 -0.1,-0.15l-7.59,0l0,-2.11c0,-0.72 0.38,-1.06 1.49,-1.06l3.32,0c0.19,0 0.28,-0.05 0.33,-0.19l0.63,-1.54c0.05,-0.1 0,-0.14 -0.1,-0.14l-5.62,0l0,-2.98l6.73,0l0,0.04z" fill="#7fff00" id="XMLID_242_"/>
    <path clip-rule="evenodd" d="m25.87,6.82c0.96,-0.53 1.34,-1.44 1.34,-2.6c0,-2.59 -2.11,-2.98 -4.33,-2.98l-5.04,0c-0.82,0 -1.16,0.24 -1.16,0.82l0,10.29c0,0.48 0.24,0.72 0.87,0.72l6.2,0c2.36,0 3.99,-0.92 3.99,-3.27c0.05,-1.44 -0.53,-2.65 -1.87,-2.98zm-6.69,-3.7l3.9,0c1.3,0 1.68,0.48 1.68,1.49c0,1.01 -0.38,1.49 -1.68,1.49l-3.9,0l0,-2.98zm0,8.02l4.38,0c1.39,0 1.78,-0.48 1.78,-1.58c0,-1.11 -0.39,-1.64 -1.78,-1.64l-2.89,0c-1.1,0 -1.49,0.34 -1.49,1.06l0,2.16z" fill="#7fff00" fill-rule="evenodd" id="XMLID_238_"/>
    <path clip-rule="evenodd" d="m55.38,8.31l2.65,4.57c0.05,0.04 0.05,0.19 -0.05,0.19l-2.26,0c-0.19,0 -0.24,-0.05 -0.34,-0.19l-2.4,-4.33l-2.16,0c-1.11,0 -1.49,0.33 -1.49,1.06l0,3.46l-2.17,0c-0.14,0 -0.28,-0.15 -0.28,-0.29l0,-10.72c0,-0.58 0.33,-0.82 1.15,-0.82l5.05,0c2.93,0 4.71,0.77 4.71,3.65c0,2.22 -1.11,3.08 -2.41,3.42zm-6.1,-1.59l4.13,0c1.54,0 1.88,-0.58 1.88,-1.83c0,-1.2 -0.34,-1.77 -1.88,-1.77l-4.13,0l0,3.6z" fill="#7fff00" fill-rule="evenodd" id="XMLID_235_"/>
   </g>
   <g id="XMLID_224_">
    <path d="m76.44,12.01l-0.05,1.06l-8.75,0l0,-11.83l8.42,0l0.05,1.11l-7.26,0l0,4.08l6.25,0l0,0.96l-6.25,0l0,4.62l7.59,0z" fill="#000000" id="XMLID_232_" stroke="#57AD56" stroke-width="0.25"/>
    <g id="XMLID_229_">
     <path clip-rule="evenodd" d="m83.7,9.99l6.97,0l1.35,3.08l1.35,0l-5.44,-11.83l-1.39,0l-5.48,11.83l1.3,0l1.34,-3.08zm0.43,-1.01l2.55,-5.72l0.48,-1.2l0.05,0l0.48,1.2l2.5,5.72l-6.06,0z" fill="#000000" fill-rule="evenodd" id="svg_1"/>
     <path d="m90.67,9.99l0.12,-0.05l-0.04,-0.07l-0.08,0l0,0.12zm-6.97,0l0,-0.12l-0.08,0l-0.03,0.07l0.11,0.05zm8.32,3.08l-0.12,0.05l0.04,0.07l0.08,0l0,-0.12zm1.35,0l0,0.12l0.19,0l-0.08,-0.17l-0.11,0.05zm-5.44,-11.83l0.12,-0.05l-0.04,-0.07l-0.08,0l0,0.12zm-1.39,0l0,-0.12l-0.08,0l-0.04,0.07l0.12,0.05zm-5.48,11.83l-0.12,-0.06l-0.08,0.18l0.2,0l0,-0.12zm1.3,0l0,0.12l0.08,0l0.03,-0.07l-0.11,-0.05zm4.32,-9.81l0.12,0.05l0,0l-0.12,-0.05zm-2.55,5.72l-0.11,-0.05l-0.08,0.18l0.19,0l0,-0.13zm3.03,-6.92l0,-0.13l-0.08,0l-0.03,0.08l0.11,0.05zm0.05,0l0.12,-0.05l-0.03,-0.08l-0.09,0l0,0.13zm0.48,1.2l-0.11,0.05l0,0l0.11,-0.05zm2.5,5.72l0,0.13l0.19,0l-0.07,-0.18l-0.12,0.05zm0.48,0.89l-6.97,0l0,0.25l6.97,0l0,-0.25zm1.46,3.15l-1.34,-3.08l-0.23,0.1l1.34,3.08l0.23,-0.1zm1.24,-0.08l-1.35,0l0,0.25l1.35,0l0,-0.25zm-5.55,-11.65l5.43,11.83l0.23,-0.1l-5.43,-11.83l-0.23,0.1zm-1.28,0.08l1.39,0l0,-0.25l-1.39,0l0,0.25zm-5.37,11.75l5.48,-11.83l-0.23,-0.1l-5.48,11.82l0.23,0.11zm1.19,-0.18l-1.3,0l0,0.25l1.3,0l0,-0.25zm1.23,-3l-1.35,3.08l0.23,0.1l1.35,-3.08l-0.23,-0.1zm2.98,-6.73l-2.55,5.72l0.23,0.1l2.55,-5.72l-0.23,-0.1zm0.48,-1.2l-0.48,1.2l0.23,0.1l0.48,-1.21l-0.23,-0.09zm0.16,-0.08l-0.05,0l0,0.25l0.05,0l0,-0.25zm0.6,1.28l-0.48,-1.2l-0.23,0.09l0.48,1.21l0.23,-0.1zm2.5,5.72l-2.5,-5.72l-0.23,0.1l2.5,5.72l0.23,-0.1zm-6.18,0.18l6.06,0l0,-0.25l-6.06,0l0,0.25z" fill="#000000" id="svg_2"/>
    </g>
    <path d="m102.02,2.35l0,10.72l-1.2,0l0,-10.72l-4.43,0l0.05,-1.11l10.05,0l0,1.11l-4.47,0z" fill="#000000" id="XMLID_227_" stroke="#57AD56" stroke-width="0.25"/>
    <path d="m115.05,13.31c-1.64,0 -2.94,-0.39 -3.99,-1.01l0.19,-1.06c1.11,0.63 2.36,1.01 3.85,1.01c2.21,0 3.36,-1.01 3.36,-2.45c0,-3.13 -7.21,-1.49 -7.21,-5.53c0,-1.73 1.3,-3.27 4.33,-3.27c1.39,0 2.64,0.24 3.65,0.72l-0.19,1.01c-1.11,-0.43 -2.16,-0.67 -3.41,-0.67c-2.36,0 -3.23,1.06 -3.23,2.11c0,2.98 7.21,1.3 7.21,5.53c-0.04,2.12 -1.58,3.61 -4.56,3.61z" fill="#000000" id="XMLID_225_" stroke="#57AD56" stroke-width="0.25"/>
   </g>
  </g>
 </g>
</svg>